<mxfile host="app.diagrams.net" modified="2022-12-09T08:32:56.542Z" agent="5.0 (Windows NT 10.0; Win64; x64) AppleWebKit/537.36 (KHTML, like Gecko) Chrome/104.0.0.0 Safari/537.36" etag="KVHeJd8fsG8F308v6v3P" version="20.6.0" type="github" pages="3">
  <diagram id="ppGc9pyiZsNfxP-XiB4A" name="极小值极大值搜索">
    <mxGraphModel dx="2249" dy="743" grid="1" gridSize="10" guides="1" tooltips="1" connect="1" arrows="1" fold="1" page="1" pageScale="1" pageWidth="827" pageHeight="1169" math="0" shadow="0">
      <root>
        <mxCell id="0" />
        <mxCell id="1" parent="0" />
        <mxCell id="HbnqrODWLRLWuh91xsHi-65" style="edgeStyle=none;rounded=0;orthogonalLoop=1;jettySize=auto;html=1;exitX=0.5;exitY=1;exitDx=0;exitDy=0;entryX=0.5;entryY=0;entryDx=0;entryDy=0;" parent="1" source="HbnqrODWLRLWuh91xsHi-8" target="HbnqrODWLRLWuh91xsHi-27" edge="1">
          <mxGeometry relative="1" as="geometry" />
        </mxCell>
        <mxCell id="HbnqrODWLRLWuh91xsHi-66" style="edgeStyle=none;rounded=0;orthogonalLoop=1;jettySize=auto;html=1;exitX=0.5;exitY=1;exitDx=0;exitDy=0;entryX=0.5;entryY=0;entryDx=0;entryDy=0;" parent="1" source="HbnqrODWLRLWuh91xsHi-8" target="HbnqrODWLRLWuh91xsHi-28" edge="1">
          <mxGeometry relative="1" as="geometry" />
        </mxCell>
        <mxCell id="HbnqrODWLRLWuh91xsHi-67" style="edgeStyle=none;rounded=0;orthogonalLoop=1;jettySize=auto;html=1;exitX=0.5;exitY=1;exitDx=0;exitDy=0;entryX=0.5;entryY=0;entryDx=0;entryDy=0;" parent="1" source="HbnqrODWLRLWuh91xsHi-8" target="HbnqrODWLRLWuh91xsHi-29" edge="1">
          <mxGeometry relative="1" as="geometry" />
        </mxCell>
        <mxCell id="HbnqrODWLRLWuh91xsHi-8" value="b:2" style="rounded=0;whiteSpace=wrap;html=1;" parent="1" vertex="1">
          <mxGeometry x="-70" y="430" width="40" height="30" as="geometry" />
        </mxCell>
        <mxCell id="HbnqrODWLRLWuh91xsHi-68" style="edgeStyle=none;rounded=0;orthogonalLoop=1;jettySize=auto;html=1;exitX=0.5;exitY=1;exitDx=0;exitDy=0;entryX=0.5;entryY=0;entryDx=0;entryDy=0;" parent="1" source="HbnqrODWLRLWuh91xsHi-9" target="HbnqrODWLRLWuh91xsHi-33" edge="1">
          <mxGeometry relative="1" as="geometry" />
        </mxCell>
        <mxCell id="HbnqrODWLRLWuh91xsHi-69" style="edgeStyle=none;rounded=0;orthogonalLoop=1;jettySize=auto;html=1;exitX=0.5;exitY=1;exitDx=0;exitDy=0;entryX=0.5;entryY=0;entryDx=0;entryDy=0;" parent="1" source="HbnqrODWLRLWuh91xsHi-9" target="HbnqrODWLRLWuh91xsHi-34" edge="1">
          <mxGeometry relative="1" as="geometry" />
        </mxCell>
        <mxCell id="HbnqrODWLRLWuh91xsHi-9" value="b:-1" style="rounded=0;whiteSpace=wrap;html=1;" parent="1" vertex="1">
          <mxGeometry x="40" y="430" width="40" height="30" as="geometry" />
        </mxCell>
        <mxCell id="HbnqrODWLRLWuh91xsHi-70" style="edgeStyle=none;rounded=0;orthogonalLoop=1;jettySize=auto;html=1;exitX=0.5;exitY=1;exitDx=0;exitDy=0;entryX=0.5;entryY=0;entryDx=0;entryDy=0;" parent="1" source="HbnqrODWLRLWuh91xsHi-10" target="HbnqrODWLRLWuh91xsHi-35" edge="1">
          <mxGeometry relative="1" as="geometry" />
        </mxCell>
        <mxCell id="HbnqrODWLRLWuh91xsHi-71" style="edgeStyle=none;rounded=0;orthogonalLoop=1;jettySize=auto;html=1;exitX=0.5;exitY=1;exitDx=0;exitDy=0;" parent="1" source="HbnqrODWLRLWuh91xsHi-10" target="HbnqrODWLRLWuh91xsHi-36" edge="1">
          <mxGeometry relative="1" as="geometry" />
        </mxCell>
        <mxCell id="HbnqrODWLRLWuh91xsHi-10" value="b:-1" style="rounded=0;whiteSpace=wrap;html=1;" parent="1" vertex="1">
          <mxGeometry x="140" y="430" width="40" height="30" as="geometry" />
        </mxCell>
        <mxCell id="HbnqrODWLRLWuh91xsHi-50" style="rounded=0;orthogonalLoop=1;jettySize=auto;html=1;exitX=0.5;exitY=1;exitDx=0;exitDy=0;entryX=0.5;entryY=0;entryDx=0;entryDy=0;" parent="1" source="HbnqrODWLRLWuh91xsHi-11" target="HbnqrODWLRLWuh91xsHi-12" edge="1">
          <mxGeometry relative="1" as="geometry" />
        </mxCell>
        <mxCell id="HbnqrODWLRLWuh91xsHi-51" style="edgeStyle=none;rounded=0;orthogonalLoop=1;jettySize=auto;html=1;exitX=0.5;exitY=1;exitDx=0;exitDy=0;entryX=0.5;entryY=0;entryDx=0;entryDy=0;" parent="1" source="HbnqrODWLRLWuh91xsHi-11" target="HbnqrODWLRLWuh91xsHi-13" edge="1">
          <mxGeometry relative="1" as="geometry" />
        </mxCell>
        <mxCell id="HbnqrODWLRLWuh91xsHi-11" value="2" style="rounded=0;whiteSpace=wrap;html=1;" parent="1" vertex="1">
          <mxGeometry x="394" y="150" width="40" height="30" as="geometry" />
        </mxCell>
        <mxCell id="HbnqrODWLRLWuh91xsHi-52" style="edgeStyle=none;rounded=0;orthogonalLoop=1;jettySize=auto;html=1;exitX=0.5;exitY=1;exitDx=0;exitDy=0;entryX=0.5;entryY=0;entryDx=0;entryDy=0;" parent="1" source="HbnqrODWLRLWuh91xsHi-12" target="HbnqrODWLRLWuh91xsHi-14" edge="1">
          <mxGeometry relative="1" as="geometry" />
        </mxCell>
        <mxCell id="HbnqrODWLRLWuh91xsHi-53" style="edgeStyle=none;rounded=0;orthogonalLoop=1;jettySize=auto;html=1;exitX=0.5;exitY=1;exitDx=0;exitDy=0;entryX=0.5;entryY=0;entryDx=0;entryDy=0;" parent="1" source="HbnqrODWLRLWuh91xsHi-12" target="HbnqrODWLRLWuh91xsHi-15" edge="1">
          <mxGeometry relative="1" as="geometry" />
        </mxCell>
        <mxCell id="HbnqrODWLRLWuh91xsHi-12" value="b:2" style="rounded=0;whiteSpace=wrap;html=1;" parent="1" vertex="1">
          <mxGeometry x="180" y="230" width="40" height="30" as="geometry" />
        </mxCell>
        <mxCell id="HbnqrODWLRLWuh91xsHi-54" style="edgeStyle=none;rounded=0;orthogonalLoop=1;jettySize=auto;html=1;exitX=0.5;exitY=1;exitDx=0;exitDy=0;entryX=0.5;entryY=0;entryDx=0;entryDy=0;" parent="1" source="HbnqrODWLRLWuh91xsHi-13" target="HbnqrODWLRLWuh91xsHi-16" edge="1">
          <mxGeometry relative="1" as="geometry" />
        </mxCell>
        <mxCell id="HbnqrODWLRLWuh91xsHi-55" style="edgeStyle=none;rounded=0;orthogonalLoop=1;jettySize=auto;html=1;exitX=0.5;exitY=1;exitDx=0;exitDy=0;entryX=0.5;entryY=0;entryDx=0;entryDy=0;" parent="1" source="HbnqrODWLRLWuh91xsHi-13" target="HbnqrODWLRLWuh91xsHi-17" edge="1">
          <mxGeometry relative="1" as="geometry" />
        </mxCell>
        <mxCell id="HbnqrODWLRLWuh91xsHi-13" value="b:0" style="rounded=0;whiteSpace=wrap;html=1;" parent="1" vertex="1">
          <mxGeometry x="620" y="230" width="40" height="30" as="geometry" />
        </mxCell>
        <mxCell id="HbnqrODWLRLWuh91xsHi-56" style="edgeStyle=none;rounded=0;orthogonalLoop=1;jettySize=auto;html=1;exitX=0.5;exitY=1;exitDx=0;exitDy=0;entryX=0.5;entryY=0;entryDx=0;entryDy=0;" parent="1" source="HbnqrODWLRLWuh91xsHi-14" target="HbnqrODWLRLWuh91xsHi-8" edge="1">
          <mxGeometry relative="1" as="geometry" />
        </mxCell>
        <mxCell id="HbnqrODWLRLWuh91xsHi-57" style="edgeStyle=none;rounded=0;orthogonalLoop=1;jettySize=auto;html=1;exitX=0.5;exitY=1;exitDx=0;exitDy=0;entryX=0.5;entryY=0;entryDx=0;entryDy=0;" parent="1" source="HbnqrODWLRLWuh91xsHi-14" target="HbnqrODWLRLWuh91xsHi-9" edge="1">
          <mxGeometry relative="1" as="geometry" />
        </mxCell>
        <mxCell id="HbnqrODWLRLWuh91xsHi-58" style="edgeStyle=none;rounded=0;orthogonalLoop=1;jettySize=auto;html=1;exitX=0.5;exitY=1;exitDx=0;exitDy=0;entryX=0.5;entryY=0;entryDx=0;entryDy=0;" parent="1" source="HbnqrODWLRLWuh91xsHi-14" target="HbnqrODWLRLWuh91xsHi-10" edge="1">
          <mxGeometry relative="1" as="geometry" />
        </mxCell>
        <mxCell id="HbnqrODWLRLWuh91xsHi-14" value="a:2" style="rounded=0;whiteSpace=wrap;html=1;" parent="1" vertex="1">
          <mxGeometry x="90" y="320" width="40" height="30" as="geometry" />
        </mxCell>
        <mxCell id="HbnqrODWLRLWuh91xsHi-59" style="edgeStyle=none;rounded=0;orthogonalLoop=1;jettySize=auto;html=1;exitX=0.5;exitY=1;exitDx=0;exitDy=0;entryX=0.5;entryY=0;entryDx=0;entryDy=0;" parent="1" source="HbnqrODWLRLWuh91xsHi-15" target="HbnqrODWLRLWuh91xsHi-21" edge="1">
          <mxGeometry relative="1" as="geometry" />
        </mxCell>
        <mxCell id="HbnqrODWLRLWuh91xsHi-60" style="edgeStyle=none;rounded=0;orthogonalLoop=1;jettySize=auto;html=1;exitX=0.5;exitY=1;exitDx=0;exitDy=0;entryX=0.5;entryY=0;entryDx=0;entryDy=0;" parent="1" source="HbnqrODWLRLWuh91xsHi-15" target="HbnqrODWLRLWuh91xsHi-22" edge="1">
          <mxGeometry relative="1" as="geometry" />
        </mxCell>
        <mxCell id="HbnqrODWLRLWuh91xsHi-15" value="a:6" style="rounded=0;whiteSpace=wrap;html=1;" parent="1" vertex="1">
          <mxGeometry x="310" y="320" width="40" height="30" as="geometry" />
        </mxCell>
        <mxCell id="HbnqrODWLRLWuh91xsHi-61" style="edgeStyle=none;rounded=0;orthogonalLoop=1;jettySize=auto;html=1;exitX=0.5;exitY=1;exitDx=0;exitDy=0;entryX=0.5;entryY=0;entryDx=0;entryDy=0;" parent="1" source="HbnqrODWLRLWuh91xsHi-16" target="HbnqrODWLRLWuh91xsHi-23" edge="1">
          <mxGeometry relative="1" as="geometry" />
        </mxCell>
        <mxCell id="HbnqrODWLRLWuh91xsHi-62" style="edgeStyle=none;rounded=0;orthogonalLoop=1;jettySize=auto;html=1;exitX=0.5;exitY=1;exitDx=0;exitDy=0;entryX=0.5;entryY=0;entryDx=0;entryDy=0;" parent="1" source="HbnqrODWLRLWuh91xsHi-16" target="HbnqrODWLRLWuh91xsHi-24" edge="1">
          <mxGeometry relative="1" as="geometry" />
        </mxCell>
        <mxCell id="HbnqrODWLRLWuh91xsHi-16" value="a:0" style="rounded=0;whiteSpace=wrap;html=1;" parent="1" vertex="1">
          <mxGeometry x="510" y="320" width="40" height="30" as="geometry" />
        </mxCell>
        <mxCell id="HbnqrODWLRLWuh91xsHi-63" style="edgeStyle=none;rounded=0;orthogonalLoop=1;jettySize=auto;html=1;exitX=0.5;exitY=1;exitDx=0;exitDy=0;entryX=0.5;entryY=0;entryDx=0;entryDy=0;" parent="1" source="HbnqrODWLRLWuh91xsHi-17" target="HbnqrODWLRLWuh91xsHi-25" edge="1">
          <mxGeometry relative="1" as="geometry" />
        </mxCell>
        <mxCell id="HbnqrODWLRLWuh91xsHi-64" style="edgeStyle=none;rounded=0;orthogonalLoop=1;jettySize=auto;html=1;exitX=0.5;exitY=1;exitDx=0;exitDy=0;entryX=0.5;entryY=0;entryDx=0;entryDy=0;" parent="1" source="HbnqrODWLRLWuh91xsHi-17" target="HbnqrODWLRLWuh91xsHi-26" edge="1">
          <mxGeometry relative="1" as="geometry" />
        </mxCell>
        <mxCell id="HbnqrODWLRLWuh91xsHi-17" value="a:-1" style="rounded=0;whiteSpace=wrap;html=1;" parent="1" vertex="1">
          <mxGeometry x="700" y="320" width="40" height="30" as="geometry" />
        </mxCell>
        <mxCell id="HbnqrODWLRLWuh91xsHi-72" style="edgeStyle=none;rounded=0;orthogonalLoop=1;jettySize=auto;html=1;exitX=0.5;exitY=1;exitDx=0;exitDy=0;entryX=0.5;entryY=0;entryDx=0;entryDy=0;" parent="1" source="HbnqrODWLRLWuh91xsHi-21" target="HbnqrODWLRLWuh91xsHi-37" edge="1">
          <mxGeometry relative="1" as="geometry" />
        </mxCell>
        <mxCell id="HbnqrODWLRLWuh91xsHi-73" style="edgeStyle=none;rounded=0;orthogonalLoop=1;jettySize=auto;html=1;exitX=0.5;exitY=1;exitDx=0;exitDy=0;entryX=0.5;entryY=0;entryDx=0;entryDy=0;" parent="1" source="HbnqrODWLRLWuh91xsHi-21" target="HbnqrODWLRLWuh91xsHi-38" edge="1">
          <mxGeometry relative="1" as="geometry" />
        </mxCell>
        <mxCell id="HbnqrODWLRLWuh91xsHi-21" value="b:6" style="rounded=0;whiteSpace=wrap;html=1;" parent="1" vertex="1">
          <mxGeometry x="250" y="430" width="40" height="30" as="geometry" />
        </mxCell>
        <mxCell id="HbnqrODWLRLWuh91xsHi-74" style="edgeStyle=none;rounded=0;orthogonalLoop=1;jettySize=auto;html=1;exitX=0.5;exitY=1;exitDx=0;exitDy=0;entryX=0.5;entryY=0;entryDx=0;entryDy=0;" parent="1" source="HbnqrODWLRLWuh91xsHi-22" target="HbnqrODWLRLWuh91xsHi-39" edge="1">
          <mxGeometry relative="1" as="geometry" />
        </mxCell>
        <mxCell id="HbnqrODWLRLWuh91xsHi-75" style="edgeStyle=none;rounded=0;orthogonalLoop=1;jettySize=auto;html=1;exitX=0.5;exitY=1;exitDx=0;exitDy=0;entryX=0.5;entryY=0;entryDx=0;entryDy=0;" parent="1" source="HbnqrODWLRLWuh91xsHi-22" target="HbnqrODWLRLWuh91xsHi-40" edge="1">
          <mxGeometry relative="1" as="geometry" />
        </mxCell>
        <mxCell id="HbnqrODWLRLWuh91xsHi-22" value="b:-1" style="rounded=0;whiteSpace=wrap;html=1;" parent="1" vertex="1">
          <mxGeometry x="370" y="430" width="40" height="30" as="geometry" />
        </mxCell>
        <mxCell id="HbnqrODWLRLWuh91xsHi-76" style="edgeStyle=none;rounded=0;orthogonalLoop=1;jettySize=auto;html=1;exitX=0.5;exitY=1;exitDx=0;exitDy=0;entryX=0.5;entryY=0;entryDx=0;entryDy=0;" parent="1" source="HbnqrODWLRLWuh91xsHi-23" target="HbnqrODWLRLWuh91xsHi-41" edge="1">
          <mxGeometry relative="1" as="geometry" />
        </mxCell>
        <mxCell id="HbnqrODWLRLWuh91xsHi-77" style="edgeStyle=none;rounded=0;orthogonalLoop=1;jettySize=auto;html=1;exitX=0.5;exitY=1;exitDx=0;exitDy=0;entryX=0.5;entryY=0;entryDx=0;entryDy=0;" parent="1" source="HbnqrODWLRLWuh91xsHi-23" target="HbnqrODWLRLWuh91xsHi-42" edge="1">
          <mxGeometry relative="1" as="geometry" />
        </mxCell>
        <mxCell id="HbnqrODWLRLWuh91xsHi-23" value="b:0" style="rounded=0;whiteSpace=wrap;html=1;" parent="1" vertex="1">
          <mxGeometry x="450" y="430" width="40" height="30" as="geometry" />
        </mxCell>
        <mxCell id="HbnqrODWLRLWuh91xsHi-78" style="edgeStyle=none;rounded=0;orthogonalLoop=1;jettySize=auto;html=1;exitX=0.5;exitY=1;exitDx=0;exitDy=0;entryX=0.5;entryY=0;entryDx=0;entryDy=0;" parent="1" source="HbnqrODWLRLWuh91xsHi-24" target="HbnqrODWLRLWuh91xsHi-43" edge="1">
          <mxGeometry relative="1" as="geometry" />
        </mxCell>
        <mxCell id="HbnqrODWLRLWuh91xsHi-79" style="edgeStyle=none;rounded=0;orthogonalLoop=1;jettySize=auto;html=1;exitX=0.5;exitY=1;exitDx=0;exitDy=0;entryX=0.5;entryY=0;entryDx=0;entryDy=0;" parent="1" source="HbnqrODWLRLWuh91xsHi-24" target="HbnqrODWLRLWuh91xsHi-44" edge="1">
          <mxGeometry relative="1" as="geometry" />
        </mxCell>
        <mxCell id="HbnqrODWLRLWuh91xsHi-24" value="b:-5" style="rounded=0;whiteSpace=wrap;html=1;" parent="1" vertex="1">
          <mxGeometry x="560" y="430" width="40" height="30" as="geometry" />
        </mxCell>
        <mxCell id="HbnqrODWLRLWuh91xsHi-80" style="edgeStyle=none;rounded=0;orthogonalLoop=1;jettySize=auto;html=1;exitX=0.5;exitY=1;exitDx=0;exitDy=0;entryX=0.5;entryY=0;entryDx=0;entryDy=0;" parent="1" source="HbnqrODWLRLWuh91xsHi-25" target="HbnqrODWLRLWuh91xsHi-45" edge="1">
          <mxGeometry relative="1" as="geometry" />
        </mxCell>
        <mxCell id="HbnqrODWLRLWuh91xsHi-81" style="edgeStyle=none;rounded=0;orthogonalLoop=1;jettySize=auto;html=1;exitX=0.5;exitY=1;exitDx=0;exitDy=0;entryX=0.5;entryY=0;entryDx=0;entryDy=0;" parent="1" source="HbnqrODWLRLWuh91xsHi-25" target="HbnqrODWLRLWuh91xsHi-46" edge="1">
          <mxGeometry relative="1" as="geometry" />
        </mxCell>
        <mxCell id="HbnqrODWLRLWuh91xsHi-25" value="b:-2" style="rounded=0;whiteSpace=wrap;html=1;" parent="1" vertex="1">
          <mxGeometry x="630" y="430" width="40" height="30" as="geometry" />
        </mxCell>
        <mxCell id="HbnqrODWLRLWuh91xsHi-82" style="edgeStyle=none;rounded=0;orthogonalLoop=1;jettySize=auto;html=1;exitX=0.5;exitY=1;exitDx=0;exitDy=0;entryX=0.5;entryY=0;entryDx=0;entryDy=0;" parent="1" source="HbnqrODWLRLWuh91xsHi-26" target="HbnqrODWLRLWuh91xsHi-47" edge="1">
          <mxGeometry relative="1" as="geometry" />
        </mxCell>
        <mxCell id="HbnqrODWLRLWuh91xsHi-83" style="edgeStyle=none;rounded=0;orthogonalLoop=1;jettySize=auto;html=1;exitX=0.5;exitY=1;exitDx=0;exitDy=0;entryX=0.5;entryY=0;entryDx=0;entryDy=0;" parent="1" source="HbnqrODWLRLWuh91xsHi-26" target="HbnqrODWLRLWuh91xsHi-48" edge="1">
          <mxGeometry relative="1" as="geometry" />
        </mxCell>
        <mxCell id="HbnqrODWLRLWuh91xsHi-26" value="b-1" style="rounded=0;whiteSpace=wrap;html=1;" parent="1" vertex="1">
          <mxGeometry x="770" y="430" width="40" height="30" as="geometry" />
        </mxCell>
        <mxCell id="HbnqrODWLRLWuh91xsHi-27" value="a:2" style="rounded=0;whiteSpace=wrap;html=1;" parent="1" vertex="1">
          <mxGeometry x="-120" y="600" width="40" height="30" as="geometry" />
        </mxCell>
        <mxCell id="HbnqrODWLRLWuh91xsHi-28" value="a:9" style="rounded=0;whiteSpace=wrap;html=1;" parent="1" vertex="1">
          <mxGeometry x="-70" y="600" width="40" height="30" as="geometry" />
        </mxCell>
        <mxCell id="HbnqrODWLRLWuh91xsHi-29" value="a:3" style="rounded=0;whiteSpace=wrap;html=1;" parent="1" vertex="1">
          <mxGeometry x="-20" y="600" width="40" height="30" as="geometry" />
        </mxCell>
        <mxCell id="HbnqrODWLRLWuh91xsHi-33" value="a:1" style="rounded=0;whiteSpace=wrap;html=1;" parent="1" vertex="1">
          <mxGeometry x="30" y="600" width="40" height="30" as="geometry" />
        </mxCell>
        <mxCell id="HbnqrODWLRLWuh91xsHi-34" value="a:-1" style="rounded=0;whiteSpace=wrap;html=1;" parent="1" vertex="1">
          <mxGeometry x="80" y="600" width="40" height="30" as="geometry" />
        </mxCell>
        <mxCell id="HbnqrODWLRLWuh91xsHi-35" value="a:-1" style="rounded=0;whiteSpace=wrap;html=1;" parent="1" vertex="1">
          <mxGeometry x="130" y="600" width="40" height="30" as="geometry" />
        </mxCell>
        <mxCell id="HbnqrODWLRLWuh91xsHi-36" value="a:3" style="rounded=0;whiteSpace=wrap;html=1;" parent="1" vertex="1">
          <mxGeometry x="180" y="600" width="40" height="30" as="geometry" />
        </mxCell>
        <mxCell id="HbnqrODWLRLWuh91xsHi-37" value="a:6" style="rounded=0;whiteSpace=wrap;html=1;" parent="1" vertex="1">
          <mxGeometry x="230" y="600" width="40" height="30" as="geometry" />
        </mxCell>
        <mxCell id="HbnqrODWLRLWuh91xsHi-38" value="a:6" style="rounded=0;whiteSpace=wrap;html=1;" parent="1" vertex="1">
          <mxGeometry x="280" y="600" width="40" height="30" as="geometry" />
        </mxCell>
        <mxCell id="HbnqrODWLRLWuh91xsHi-39" value="a:-1" style="rounded=0;whiteSpace=wrap;html=1;" parent="1" vertex="1">
          <mxGeometry x="330" y="600" width="40" height="30" as="geometry" />
        </mxCell>
        <mxCell id="HbnqrODWLRLWuh91xsHi-40" value="a:2" style="rounded=0;whiteSpace=wrap;html=1;" parent="1" vertex="1">
          <mxGeometry x="380" y="600" width="40" height="30" as="geometry" />
        </mxCell>
        <mxCell id="HbnqrODWLRLWuh91xsHi-41" value="a:0" style="rounded=0;whiteSpace=wrap;html=1;" parent="1" vertex="1">
          <mxGeometry x="434" y="600" width="40" height="30" as="geometry" />
        </mxCell>
        <mxCell id="HbnqrODWLRLWuh91xsHi-42" value="a:3" style="rounded=0;whiteSpace=wrap;html=1;" parent="1" vertex="1">
          <mxGeometry x="484" y="600" width="40" height="30" as="geometry" />
        </mxCell>
        <mxCell id="HbnqrODWLRLWuh91xsHi-43" value="a:-5" style="rounded=0;whiteSpace=wrap;html=1;" parent="1" vertex="1">
          <mxGeometry x="535" y="600" width="40" height="30" as="geometry" />
        </mxCell>
        <mxCell id="HbnqrODWLRLWuh91xsHi-44" value="a:7" style="rounded=0;whiteSpace=wrap;html=1;" parent="1" vertex="1">
          <mxGeometry x="585" y="600" width="40" height="30" as="geometry" />
        </mxCell>
        <mxCell id="HbnqrODWLRLWuh91xsHi-45" value="a:4" style="rounded=0;whiteSpace=wrap;html=1;" parent="1" vertex="1">
          <mxGeometry x="640" y="600" width="40" height="30" as="geometry" />
        </mxCell>
        <mxCell id="HbnqrODWLRLWuh91xsHi-46" value="a:-2" style="rounded=0;whiteSpace=wrap;html=1;" parent="1" vertex="1">
          <mxGeometry x="690" y="600" width="40" height="30" as="geometry" />
        </mxCell>
        <mxCell id="HbnqrODWLRLWuh91xsHi-47" value="a:5" style="rounded=0;whiteSpace=wrap;html=1;" parent="1" vertex="1">
          <mxGeometry x="740" y="600" width="40" height="30" as="geometry" />
        </mxCell>
        <mxCell id="HbnqrODWLRLWuh91xsHi-48" value="a:-1" style="rounded=0;whiteSpace=wrap;html=1;" parent="1" vertex="1">
          <mxGeometry x="790" y="600" width="40" height="30" as="geometry" />
        </mxCell>
      </root>
    </mxGraphModel>
  </diagram>
  <diagram id="9K6kHsf1P7muaErldYtB" name="数独_回溯">
    <mxGraphModel dx="1422" dy="743" grid="1" gridSize="10" guides="1" tooltips="1" connect="1" arrows="1" fold="1" page="1" pageScale="1" pageWidth="827" pageHeight="1169" math="0" shadow="0">
      <root>
        <mxCell id="0" />
        <mxCell id="1" parent="0" />
        <mxCell id="8-sfAg10hF07b5mOZwU2-5" style="edgeStyle=orthogonalEdgeStyle;rounded=0;orthogonalLoop=1;jettySize=auto;html=1;exitX=0.5;exitY=1;exitDx=0;exitDy=0;entryX=0.5;entryY=0;entryDx=0;entryDy=0;" parent="1" source="IDvaxvb_3gzu9hVDri_e-1" target="IDvaxvb_3gzu9hVDri_e-2" edge="1">
          <mxGeometry relative="1" as="geometry" />
        </mxCell>
        <mxCell id="IDvaxvb_3gzu9hVDri_e-1" value="开始" style="rounded=1;whiteSpace=wrap;html=1;" parent="1" vertex="1">
          <mxGeometry x="585" y="80" width="120" height="60" as="geometry" />
        </mxCell>
        <mxCell id="8-sfAg10hF07b5mOZwU2-6" style="edgeStyle=orthogonalEdgeStyle;rounded=0;orthogonalLoop=1;jettySize=auto;html=1;exitX=0.5;exitY=1;exitDx=0;exitDy=0;entryX=0.5;entryY=0;entryDx=0;entryDy=0;" parent="1" source="IDvaxvb_3gzu9hVDri_e-2" target="IDvaxvb_3gzu9hVDri_e-3" edge="1">
          <mxGeometry relative="1" as="geometry" />
        </mxCell>
        <mxCell id="IDvaxvb_3gzu9hVDri_e-2" value="搜索出第一个非空元素的坐标，并且将坐标压入栈中" style="rounded=0;whiteSpace=wrap;html=1;" parent="1" vertex="1">
          <mxGeometry x="585" y="180" width="120" height="60" as="geometry" />
        </mxCell>
        <mxCell id="8-sfAg10hF07b5mOZwU2-7" style="edgeStyle=orthogonalEdgeStyle;rounded=0;orthogonalLoop=1;jettySize=auto;html=1;exitX=0.5;exitY=1;exitDx=0;exitDy=0;" parent="1" source="IDvaxvb_3gzu9hVDri_e-3" edge="1">
          <mxGeometry relative="1" as="geometry">
            <mxPoint x="645" y="350" as="targetPoint" />
          </mxGeometry>
        </mxCell>
        <mxCell id="IDvaxvb_3gzu9hVDri_e-3" value="搜索出最后一个非空元素的坐标(m,n)" style="rounded=0;whiteSpace=wrap;html=1;" parent="1" vertex="1">
          <mxGeometry x="585" y="270" width="120" height="60" as="geometry" />
        </mxCell>
        <mxCell id="IDvaxvb_3gzu9hVDri_e-18" style="edgeStyle=orthogonalEdgeStyle;rounded=0;orthogonalLoop=1;jettySize=auto;html=1;exitX=1;exitY=0.5;exitDx=0;exitDy=0;" parent="1" source="IDvaxvb_3gzu9hVDri_e-4" target="IDvaxvb_3gzu9hVDri_e-11" edge="1">
          <mxGeometry relative="1" as="geometry" />
        </mxCell>
        <mxCell id="8-sfAg10hF07b5mOZwU2-3" style="edgeStyle=orthogonalEdgeStyle;rounded=0;orthogonalLoop=1;jettySize=auto;html=1;exitX=0.5;exitY=1;exitDx=0;exitDy=0;entryX=0;entryY=0.5;entryDx=0;entryDy=0;" parent="1" source="IDvaxvb_3gzu9hVDri_e-4" target="IDvaxvb_3gzu9hVDri_e-6" edge="1">
          <mxGeometry relative="1" as="geometry" />
        </mxCell>
        <mxCell id="IDvaxvb_3gzu9hVDri_e-4" value="(m,n)出的元素非空且合法" style="rhombus;whiteSpace=wrap;html=1;" parent="1" vertex="1">
          <mxGeometry x="336" y="380" width="156" height="80" as="geometry" />
        </mxCell>
        <mxCell id="8-sfAg10hF07b5mOZwU2-4" style="edgeStyle=orthogonalEdgeStyle;rounded=0;orthogonalLoop=1;jettySize=auto;html=1;exitX=0.5;exitY=1;exitDx=0;exitDy=0;entryX=0.5;entryY=0;entryDx=0;entryDy=0;" parent="1" source="IDvaxvb_3gzu9hVDri_e-6" target="IDvaxvb_3gzu9hVDri_e-7" edge="1">
          <mxGeometry relative="1" as="geometry" />
        </mxCell>
        <mxCell id="IDvaxvb_3gzu9hVDri_e-6" value="输出结果" style="rounded=0;whiteSpace=wrap;html=1;" parent="1" vertex="1">
          <mxGeometry x="585" y="600" width="120" height="60" as="geometry" />
        </mxCell>
        <mxCell id="IDvaxvb_3gzu9hVDri_e-7" value="结束" style="rounded=1;whiteSpace=wrap;html=1;" parent="1" vertex="1">
          <mxGeometry x="585" y="700" width="120" height="60" as="geometry" />
        </mxCell>
        <mxCell id="IDvaxvb_3gzu9hVDri_e-8" value="是" style="text;html=1;strokeColor=none;fillColor=none;align=center;verticalAlign=middle;whiteSpace=wrap;rounded=0;" parent="1" vertex="1">
          <mxGeometry x="370" y="470" width="60" height="40" as="geometry" />
        </mxCell>
        <mxCell id="IDvaxvb_3gzu9hVDri_e-9" value="否" style="text;html=1;strokeColor=none;fillColor=none;align=center;verticalAlign=middle;whiteSpace=wrap;rounded=0;" parent="1" vertex="1">
          <mxGeometry x="492" y="390" width="60" height="40" as="geometry" />
        </mxCell>
        <mxCell id="IDvaxvb_3gzu9hVDri_e-17" style="edgeStyle=orthogonalEdgeStyle;rounded=0;orthogonalLoop=1;jettySize=auto;html=1;exitX=1;exitY=0.5;exitDx=0;exitDy=0;entryX=0;entryY=0.5;entryDx=0;entryDy=0;" parent="1" source="IDvaxvb_3gzu9hVDri_e-11" target="IDvaxvb_3gzu9hVDri_e-15" edge="1">
          <mxGeometry relative="1" as="geometry" />
        </mxCell>
        <mxCell id="IDvaxvb_3gzu9hVDri_e-19" style="edgeStyle=orthogonalEdgeStyle;rounded=0;orthogonalLoop=1;jettySize=auto;html=1;exitX=0.5;exitY=1;exitDx=0;exitDy=0;entryX=0.5;entryY=0;entryDx=0;entryDy=0;" parent="1" source="IDvaxvb_3gzu9hVDri_e-11" target="IDvaxvb_3gzu9hVDri_e-14" edge="1">
          <mxGeometry relative="1" as="geometry" />
        </mxCell>
        <mxCell id="IDvaxvb_3gzu9hVDri_e-11" value="当前位置元素非空且合法" style="rhombus;whiteSpace=wrap;html=1;" parent="1" vertex="1">
          <mxGeometry x="560" y="380" width="170" height="80" as="geometry" />
        </mxCell>
        <mxCell id="IDvaxvb_3gzu9hVDri_e-13" value="是" style="text;html=1;strokeColor=none;fillColor=none;align=center;verticalAlign=middle;whiteSpace=wrap;rounded=0;" parent="1" vertex="1">
          <mxGeometry x="600" y="460" width="60" height="40" as="geometry" />
        </mxCell>
        <mxCell id="8-sfAg10hF07b5mOZwU2-1" style="edgeStyle=orthogonalEdgeStyle;rounded=0;orthogonalLoop=1;jettySize=auto;html=1;exitX=0;exitY=0.5;exitDx=0;exitDy=0;entryX=0;entryY=0.5;entryDx=0;entryDy=0;" parent="1" source="IDvaxvb_3gzu9hVDri_e-14" target="IDvaxvb_3gzu9hVDri_e-4" edge="1">
          <mxGeometry relative="1" as="geometry" />
        </mxCell>
        <mxCell id="IDvaxvb_3gzu9hVDri_e-14" value="&lt;span style=&quot;&quot;&gt;搜索出下一个非空元素的坐标，并压入栈中&lt;/span&gt;" style="rounded=0;whiteSpace=wrap;html=1;" parent="1" vertex="1">
          <mxGeometry x="585" y="500" width="120" height="60" as="geometry" />
        </mxCell>
        <mxCell id="IDvaxvb_3gzu9hVDri_e-24" style="edgeStyle=orthogonalEdgeStyle;rounded=0;orthogonalLoop=1;jettySize=auto;html=1;exitX=0.5;exitY=0;exitDx=0;exitDy=0;entryX=0.5;entryY=1;entryDx=0;entryDy=0;" parent="1" source="IDvaxvb_3gzu9hVDri_e-15" target="IDvaxvb_3gzu9hVDri_e-21" edge="1">
          <mxGeometry relative="1" as="geometry" />
        </mxCell>
        <mxCell id="IDvaxvb_3gzu9hVDri_e-25" style="edgeStyle=orthogonalEdgeStyle;rounded=0;orthogonalLoop=1;jettySize=auto;html=1;exitX=0.5;exitY=1;exitDx=0;exitDy=0;entryX=0.5;entryY=0;entryDx=0;entryDy=0;" parent="1" source="IDvaxvb_3gzu9hVDri_e-15" target="IDvaxvb_3gzu9hVDri_e-20" edge="1">
          <mxGeometry relative="1" as="geometry" />
        </mxCell>
        <mxCell id="IDvaxvb_3gzu9hVDri_e-15" value="当前位置元素值为9" style="rhombus;whiteSpace=wrap;html=1;" parent="1" vertex="1">
          <mxGeometry x="810" y="380" width="170" height="80" as="geometry" />
        </mxCell>
        <mxCell id="IDvaxvb_3gzu9hVDri_e-16" value="否" style="text;html=1;strokeColor=none;fillColor=none;align=center;verticalAlign=middle;whiteSpace=wrap;rounded=0;" parent="1" vertex="1">
          <mxGeometry x="730" y="390" width="60" height="40" as="geometry" />
        </mxCell>
        <mxCell id="IDvaxvb_3gzu9hVDri_e-26" style="edgeStyle=orthogonalEdgeStyle;rounded=0;orthogonalLoop=1;jettySize=auto;html=1;exitX=1;exitY=0.5;exitDx=0;exitDy=0;entryX=1;entryY=0.5;entryDx=0;entryDy=0;" parent="1" source="IDvaxvb_3gzu9hVDri_e-20" target="IDvaxvb_3gzu9hVDri_e-21" edge="1">
          <mxGeometry relative="1" as="geometry">
            <Array as="points">
              <mxPoint x="1050" y="530" />
              <mxPoint x="1050" y="310" />
            </Array>
          </mxGeometry>
        </mxCell>
        <mxCell id="IDvaxvb_3gzu9hVDri_e-20" value="回溯（出栈）" style="rounded=0;whiteSpace=wrap;html=1;" parent="1" vertex="1">
          <mxGeometry x="835" y="500" width="120" height="60" as="geometry" />
        </mxCell>
        <mxCell id="IDvaxvb_3gzu9hVDri_e-27" style="edgeStyle=orthogonalEdgeStyle;rounded=0;orthogonalLoop=1;jettySize=auto;html=1;exitX=0;exitY=0.5;exitDx=0;exitDy=0;entryX=0.5;entryY=0;entryDx=0;entryDy=0;" parent="1" source="IDvaxvb_3gzu9hVDri_e-21" target="IDvaxvb_3gzu9hVDri_e-4" edge="1">
          <mxGeometry relative="1" as="geometry">
            <Array as="points">
              <mxPoint x="740" y="310" />
              <mxPoint x="740" y="350" />
              <mxPoint x="414" y="350" />
            </Array>
          </mxGeometry>
        </mxCell>
        <mxCell id="IDvaxvb_3gzu9hVDri_e-21" value="当前元素值加1" style="rounded=0;whiteSpace=wrap;html=1;" parent="1" vertex="1">
          <mxGeometry x="835" y="280" width="120" height="60" as="geometry" />
        </mxCell>
        <mxCell id="IDvaxvb_3gzu9hVDri_e-22" value="是" style="text;html=1;strokeColor=none;fillColor=none;align=center;verticalAlign=middle;whiteSpace=wrap;rounded=0;" parent="1" vertex="1">
          <mxGeometry x="850" y="460" width="60" height="40" as="geometry" />
        </mxCell>
        <mxCell id="IDvaxvb_3gzu9hVDri_e-23" value="否" style="text;html=1;strokeColor=none;fillColor=none;align=center;verticalAlign=middle;whiteSpace=wrap;rounded=0;" parent="1" vertex="1">
          <mxGeometry x="880" y="350" width="60" height="40" as="geometry" />
        </mxCell>
      </root>
    </mxGraphModel>
  </diagram>
  <diagram id="ladf_ifDoBE4v3DkCZU1" name="减枝">
    <mxGraphModel dx="1422" dy="743" grid="1" gridSize="10" guides="1" tooltips="1" connect="1" arrows="1" fold="1" page="1" pageScale="1" pageWidth="827" pageHeight="1169" math="0" shadow="0">
      <root>
        <mxCell id="0" />
        <mxCell id="1" parent="0" />
        <mxCell id="S-F87JNWItroFMmMYHSW-1" style="edgeStyle=none;rounded=0;orthogonalLoop=1;jettySize=auto;html=1;exitX=0.5;exitY=1;exitDx=0;exitDy=0;entryX=0.5;entryY=0;entryDx=0;entryDy=0;" edge="1" parent="1" source="S-F87JNWItroFMmMYHSW-4" target="S-F87JNWItroFMmMYHSW-51">
          <mxGeometry relative="1" as="geometry" />
        </mxCell>
        <mxCell id="S-F87JNWItroFMmMYHSW-2" style="edgeStyle=none;rounded=0;orthogonalLoop=1;jettySize=auto;html=1;exitX=0.5;exitY=1;exitDx=0;exitDy=0;entryX=0.5;entryY=0;entryDx=0;entryDy=0;" edge="1" parent="1" source="S-F87JNWItroFMmMYHSW-4" target="S-F87JNWItroFMmMYHSW-52">
          <mxGeometry relative="1" as="geometry" />
        </mxCell>
        <mxCell id="S-F87JNWItroFMmMYHSW-3" style="edgeStyle=none;rounded=0;orthogonalLoop=1;jettySize=auto;html=1;exitX=0.5;exitY=1;exitDx=0;exitDy=0;entryX=0.5;entryY=0;entryDx=0;entryDy=0;" edge="1" parent="1" source="S-F87JNWItroFMmMYHSW-4" target="S-F87JNWItroFMmMYHSW-53">
          <mxGeometry relative="1" as="geometry" />
        </mxCell>
        <mxCell id="S-F87JNWItroFMmMYHSW-4" value="b:4" style="rounded=0;whiteSpace=wrap;html=1;" vertex="1" parent="1">
          <mxGeometry x="170" y="430" width="40" height="30" as="geometry" />
        </mxCell>
        <mxCell id="S-F87JNWItroFMmMYHSW-8" style="edgeStyle=none;rounded=0;orthogonalLoop=1;jettySize=auto;html=1;exitX=0.5;exitY=1;exitDx=0;exitDy=0;entryX=0.5;entryY=0;entryDx=0;entryDy=0;" edge="1" parent="1" source="S-F87JNWItroFMmMYHSW-10" target="S-F87JNWItroFMmMYHSW-56">
          <mxGeometry relative="1" as="geometry" />
        </mxCell>
        <mxCell id="S-F87JNWItroFMmMYHSW-9" style="edgeStyle=none;rounded=0;orthogonalLoop=1;jettySize=auto;html=1;exitX=0.5;exitY=1;exitDx=0;exitDy=0;" edge="1" parent="1" source="S-F87JNWItroFMmMYHSW-10" target="S-F87JNWItroFMmMYHSW-57">
          <mxGeometry relative="1" as="geometry" />
        </mxCell>
        <mxCell id="S-F87JNWItroFMmMYHSW-10" value="b:5" style="rounded=0;whiteSpace=wrap;html=1;" vertex="1" parent="1">
          <mxGeometry x="70" y="430" width="40" height="30" as="geometry" />
        </mxCell>
        <mxCell id="S-F87JNWItroFMmMYHSW-11" style="rounded=0;orthogonalLoop=1;jettySize=auto;html=1;exitX=0.5;exitY=1;exitDx=0;exitDy=0;entryX=0.5;entryY=0;entryDx=0;entryDy=0;" edge="1" parent="1" source="S-F87JNWItroFMmMYHSW-13" target="S-F87JNWItroFMmMYHSW-16">
          <mxGeometry relative="1" as="geometry" />
        </mxCell>
        <mxCell id="S-F87JNWItroFMmMYHSW-12" style="edgeStyle=none;rounded=0;orthogonalLoop=1;jettySize=auto;html=1;exitX=0.5;exitY=1;exitDx=0;exitDy=0;entryX=0.5;entryY=0;entryDx=0;entryDy=0;" edge="1" parent="1" source="S-F87JNWItroFMmMYHSW-13" target="S-F87JNWItroFMmMYHSW-19">
          <mxGeometry relative="1" as="geometry" />
        </mxCell>
        <mxCell id="S-F87JNWItroFMmMYHSW-76" style="rounded=0;orthogonalLoop=1;jettySize=auto;html=1;exitX=0.5;exitY=1;exitDx=0;exitDy=0;entryX=0.5;entryY=0;entryDx=0;entryDy=0;" edge="1" parent="1" source="S-F87JNWItroFMmMYHSW-13" target="S-F87JNWItroFMmMYHSW-73">
          <mxGeometry relative="1" as="geometry" />
        </mxCell>
        <mxCell id="S-F87JNWItroFMmMYHSW-13" value="6" style="rounded=0;whiteSpace=wrap;html=1;" vertex="1" parent="1">
          <mxGeometry x="394" y="150" width="40" height="30" as="geometry" />
        </mxCell>
        <mxCell id="S-F87JNWItroFMmMYHSW-14" style="edgeStyle=none;rounded=0;orthogonalLoop=1;jettySize=auto;html=1;exitX=0.5;exitY=1;exitDx=0;exitDy=0;entryX=0.5;entryY=0;entryDx=0;entryDy=0;" edge="1" parent="1" source="S-F87JNWItroFMmMYHSW-16" target="S-F87JNWItroFMmMYHSW-23">
          <mxGeometry relative="1" as="geometry" />
        </mxCell>
        <mxCell id="S-F87JNWItroFMmMYHSW-15" style="edgeStyle=none;rounded=0;orthogonalLoop=1;jettySize=auto;html=1;exitX=0.5;exitY=1;exitDx=0;exitDy=0;entryX=0.5;entryY=0;entryDx=0;entryDy=0;" edge="1" parent="1" source="S-F87JNWItroFMmMYHSW-16" target="S-F87JNWItroFMmMYHSW-26">
          <mxGeometry relative="1" as="geometry" />
        </mxCell>
        <mxCell id="S-F87JNWItroFMmMYHSW-16" value="b:3" style="rounded=0;whiteSpace=wrap;html=1;" vertex="1" parent="1">
          <mxGeometry x="180" y="230" width="40" height="30" as="geometry" />
        </mxCell>
        <mxCell id="S-F87JNWItroFMmMYHSW-17" style="edgeStyle=none;rounded=0;orthogonalLoop=1;jettySize=auto;html=1;exitX=0.5;exitY=1;exitDx=0;exitDy=0;entryX=0.5;entryY=0;entryDx=0;entryDy=0;" edge="1" parent="1" source="S-F87JNWItroFMmMYHSW-19" target="S-F87JNWItroFMmMYHSW-29">
          <mxGeometry relative="1" as="geometry" />
        </mxCell>
        <mxCell id="S-F87JNWItroFMmMYHSW-18" style="edgeStyle=none;rounded=0;orthogonalLoop=1;jettySize=auto;html=1;exitX=0.5;exitY=1;exitDx=0;exitDy=0;entryX=0.5;entryY=0;entryDx=0;entryDy=0;" edge="1" parent="1" source="S-F87JNWItroFMmMYHSW-19" target="S-F87JNWItroFMmMYHSW-32">
          <mxGeometry relative="1" as="geometry" />
        </mxCell>
        <mxCell id="S-F87JNWItroFMmMYHSW-19" value="b:5" style="rounded=0;whiteSpace=wrap;html=1;" vertex="1" parent="1">
          <mxGeometry x="620" y="230" width="40" height="30" as="geometry" />
        </mxCell>
        <mxCell id="S-F87JNWItroFMmMYHSW-20" style="edgeStyle=none;rounded=0;orthogonalLoop=1;jettySize=auto;html=1;exitX=0.5;exitY=1;exitDx=0;exitDy=0;entryX=0.5;entryY=0;entryDx=0;entryDy=0;" edge="1" parent="1" source="S-F87JNWItroFMmMYHSW-23" target="S-F87JNWItroFMmMYHSW-4">
          <mxGeometry relative="1" as="geometry" />
        </mxCell>
        <mxCell id="S-F87JNWItroFMmMYHSW-22" style="edgeStyle=none;rounded=0;orthogonalLoop=1;jettySize=auto;html=1;exitX=0.5;exitY=1;exitDx=0;exitDy=0;entryX=0.5;entryY=0;entryDx=0;entryDy=0;" edge="1" parent="1" source="S-F87JNWItroFMmMYHSW-23" target="S-F87JNWItroFMmMYHSW-10">
          <mxGeometry relative="1" as="geometry" />
        </mxCell>
        <mxCell id="S-F87JNWItroFMmMYHSW-23" value="a:5" style="rounded=0;whiteSpace=wrap;html=1;" vertex="1" parent="1">
          <mxGeometry x="130" y="320" width="40" height="30" as="geometry" />
        </mxCell>
        <mxCell id="S-F87JNWItroFMmMYHSW-24" style="edgeStyle=none;rounded=0;orthogonalLoop=1;jettySize=auto;html=1;exitX=0.5;exitY=1;exitDx=0;exitDy=0;entryX=0.5;entryY=0;entryDx=0;entryDy=0;" edge="1" parent="1" source="S-F87JNWItroFMmMYHSW-26" target="S-F87JNWItroFMmMYHSW-35">
          <mxGeometry relative="1" as="geometry" />
        </mxCell>
        <mxCell id="S-F87JNWItroFMmMYHSW-26" value="a:3" style="rounded=0;whiteSpace=wrap;html=1;" vertex="1" parent="1">
          <mxGeometry x="210" y="320" width="40" height="30" as="geometry" />
        </mxCell>
        <mxCell id="S-F87JNWItroFMmMYHSW-28" style="edgeStyle=none;rounded=0;orthogonalLoop=1;jettySize=auto;html=1;exitX=0.5;exitY=1;exitDx=0;exitDy=0;entryX=0.5;entryY=0;entryDx=0;entryDy=0;" edge="1" parent="1" source="S-F87JNWItroFMmMYHSW-29" target="S-F87JNWItroFMmMYHSW-44">
          <mxGeometry relative="1" as="geometry" />
        </mxCell>
        <mxCell id="S-F87JNWItroFMmMYHSW-29" value="a:5" style="rounded=0;whiteSpace=wrap;html=1;" vertex="1" parent="1">
          <mxGeometry x="600" y="320" width="40" height="30" as="geometry" />
        </mxCell>
        <mxCell id="S-F87JNWItroFMmMYHSW-30" style="edgeStyle=none;rounded=0;orthogonalLoop=1;jettySize=auto;html=1;exitX=0.5;exitY=1;exitDx=0;exitDy=0;entryX=0.5;entryY=0;entryDx=0;entryDy=0;" edge="1" parent="1" source="S-F87JNWItroFMmMYHSW-32" target="S-F87JNWItroFMmMYHSW-47">
          <mxGeometry relative="1" as="geometry" />
        </mxCell>
        <mxCell id="S-F87JNWItroFMmMYHSW-31" style="edgeStyle=none;rounded=0;orthogonalLoop=1;jettySize=auto;html=1;exitX=0.5;exitY=1;exitDx=0;exitDy=0;entryX=0.5;entryY=0;entryDx=0;entryDy=0;" edge="1" parent="1" source="S-F87JNWItroFMmMYHSW-32" target="S-F87JNWItroFMmMYHSW-50">
          <mxGeometry relative="1" as="geometry" />
        </mxCell>
        <mxCell id="S-F87JNWItroFMmMYHSW-32" value="a:8" style="rounded=0;whiteSpace=wrap;html=1;" vertex="1" parent="1">
          <mxGeometry x="700" y="320" width="40" height="30" as="geometry" />
        </mxCell>
        <mxCell id="S-F87JNWItroFMmMYHSW-33" style="edgeStyle=none;rounded=0;orthogonalLoop=1;jettySize=auto;html=1;exitX=0.5;exitY=1;exitDx=0;exitDy=0;entryX=0.5;entryY=0;entryDx=0;entryDy=0;" edge="1" parent="1" source="S-F87JNWItroFMmMYHSW-35" target="S-F87JNWItroFMmMYHSW-58">
          <mxGeometry relative="1" as="geometry" />
        </mxCell>
        <mxCell id="S-F87JNWItroFMmMYHSW-35" value="b:3" style="rounded=0;whiteSpace=wrap;html=1;" vertex="1" parent="1">
          <mxGeometry x="250" y="430" width="40" height="30" as="geometry" />
        </mxCell>
        <mxCell id="S-F87JNWItroFMmMYHSW-36" style="edgeStyle=none;rounded=0;orthogonalLoop=1;jettySize=auto;html=1;exitX=0.5;exitY=1;exitDx=0;exitDy=0;entryX=0.5;entryY=0;entryDx=0;entryDy=0;" edge="1" parent="1" source="S-F87JNWItroFMmMYHSW-38" target="S-F87JNWItroFMmMYHSW-60">
          <mxGeometry relative="1" as="geometry" />
        </mxCell>
        <mxCell id="S-F87JNWItroFMmMYHSW-38" value="b:6" style="rounded=0;whiteSpace=wrap;html=1;" vertex="1" parent="1">
          <mxGeometry x="330" y="430" width="40" height="30" as="geometry" />
        </mxCell>
        <mxCell id="S-F87JNWItroFMmMYHSW-39" style="edgeStyle=none;rounded=0;orthogonalLoop=1;jettySize=auto;html=1;exitX=0.5;exitY=1;exitDx=0;exitDy=0;entryX=0.5;entryY=0;entryDx=0;entryDy=0;" edge="1" parent="1" source="S-F87JNWItroFMmMYHSW-41" target="S-F87JNWItroFMmMYHSW-62">
          <mxGeometry relative="1" as="geometry" />
        </mxCell>
        <mxCell id="S-F87JNWItroFMmMYHSW-40" style="edgeStyle=none;rounded=0;orthogonalLoop=1;jettySize=auto;html=1;exitX=0.5;exitY=1;exitDx=0;exitDy=0;entryX=0.5;entryY=0;entryDx=0;entryDy=0;" edge="1" parent="1" source="S-F87JNWItroFMmMYHSW-41" target="S-F87JNWItroFMmMYHSW-63">
          <mxGeometry relative="1" as="geometry" />
        </mxCell>
        <mxCell id="S-F87JNWItroFMmMYHSW-41" value="b:6" style="rounded=0;whiteSpace=wrap;html=1;" vertex="1" parent="1">
          <mxGeometry x="384" y="430" width="40" height="30" as="geometry" />
        </mxCell>
        <mxCell id="S-F87JNWItroFMmMYHSW-43" style="edgeStyle=none;rounded=0;orthogonalLoop=1;jettySize=auto;html=1;exitX=0.5;exitY=1;exitDx=0;exitDy=0;entryX=0.5;entryY=0;entryDx=0;entryDy=0;" edge="1" parent="1" source="S-F87JNWItroFMmMYHSW-44" target="S-F87JNWItroFMmMYHSW-65">
          <mxGeometry relative="1" as="geometry" />
        </mxCell>
        <mxCell id="S-F87JNWItroFMmMYHSW-44" value="b:5" style="rounded=0;whiteSpace=wrap;html=1;" vertex="1" parent="1">
          <mxGeometry x="590" y="430" width="40" height="30" as="geometry" />
        </mxCell>
        <mxCell id="S-F87JNWItroFMmMYHSW-45" style="edgeStyle=none;rounded=0;orthogonalLoop=1;jettySize=auto;html=1;exitX=0.5;exitY=1;exitDx=0;exitDy=0;entryX=0.5;entryY=0;entryDx=0;entryDy=0;" edge="1" parent="1" source="S-F87JNWItroFMmMYHSW-47" target="S-F87JNWItroFMmMYHSW-66">
          <mxGeometry relative="1" as="geometry" />
        </mxCell>
        <mxCell id="S-F87JNWItroFMmMYHSW-46" style="edgeStyle=none;rounded=0;orthogonalLoop=1;jettySize=auto;html=1;exitX=0.5;exitY=1;exitDx=0;exitDy=0;entryX=0.5;entryY=0;entryDx=0;entryDy=0;" edge="1" parent="1" source="S-F87JNWItroFMmMYHSW-47" target="S-F87JNWItroFMmMYHSW-67">
          <mxGeometry relative="1" as="geometry" />
        </mxCell>
        <mxCell id="S-F87JNWItroFMmMYHSW-47" value="b:8" style="rounded=0;whiteSpace=wrap;html=1;" vertex="1" parent="1">
          <mxGeometry x="670" y="430" width="40" height="30" as="geometry" />
        </mxCell>
        <mxCell id="S-F87JNWItroFMmMYHSW-49" style="edgeStyle=none;rounded=0;orthogonalLoop=1;jettySize=auto;html=1;exitX=0.5;exitY=1;exitDx=0;exitDy=0;entryX=0.5;entryY=0;entryDx=0;entryDy=0;" edge="1" parent="1" source="S-F87JNWItroFMmMYHSW-50" target="S-F87JNWItroFMmMYHSW-69">
          <mxGeometry relative="1" as="geometry" />
        </mxCell>
        <mxCell id="S-F87JNWItroFMmMYHSW-50" value="b:6" style="rounded=0;whiteSpace=wrap;html=1;" vertex="1" parent="1">
          <mxGeometry x="750" y="430" width="40" height="30" as="geometry" />
        </mxCell>
        <mxCell id="S-F87JNWItroFMmMYHSW-51" value="a:7" style="rounded=0;whiteSpace=wrap;html=1;" vertex="1" parent="1">
          <mxGeometry x="110" y="600" width="40" height="30" as="geometry" />
        </mxCell>
        <mxCell id="S-F87JNWItroFMmMYHSW-52" value="a:4" style="rounded=0;whiteSpace=wrap;html=1;" vertex="1" parent="1">
          <mxGeometry x="160" y="600" width="40" height="30" as="geometry" />
        </mxCell>
        <mxCell id="S-F87JNWItroFMmMYHSW-53" value="a:5" style="rounded=0;whiteSpace=wrap;html=1;" vertex="1" parent="1">
          <mxGeometry x="210" y="600" width="40" height="30" as="geometry" />
        </mxCell>
        <mxCell id="S-F87JNWItroFMmMYHSW-56" value="a:5" style="rounded=0;whiteSpace=wrap;html=1;" vertex="1" parent="1">
          <mxGeometry y="600" width="40" height="30" as="geometry" />
        </mxCell>
        <mxCell id="S-F87JNWItroFMmMYHSW-57" value="a:6" style="rounded=0;whiteSpace=wrap;html=1;" vertex="1" parent="1">
          <mxGeometry x="60" y="600" width="40" height="30" as="geometry" />
        </mxCell>
        <mxCell id="S-F87JNWItroFMmMYHSW-58" value="a:3" style="rounded=0;whiteSpace=wrap;html=1;" vertex="1" parent="1">
          <mxGeometry x="260" y="600" width="40" height="30" as="geometry" />
        </mxCell>
        <mxCell id="S-F87JNWItroFMmMYHSW-81" style="edgeStyle=none;rounded=0;orthogonalLoop=1;jettySize=auto;html=1;exitX=0.5;exitY=1;exitDx=0;exitDy=0;entryX=0.5;entryY=0;entryDx=0;entryDy=0;" edge="1" parent="1" source="S-F87JNWItroFMmMYHSW-59" target="S-F87JNWItroFMmMYHSW-64">
          <mxGeometry relative="1" as="geometry" />
        </mxCell>
        <mxCell id="S-F87JNWItroFMmMYHSW-59" value="b:7" style="rounded=0;whiteSpace=wrap;html=1;" vertex="1" parent="1">
          <mxGeometry x="464" y="430" width="40" height="30" as="geometry" />
        </mxCell>
        <mxCell id="S-F87JNWItroFMmMYHSW-60" value="a:6" style="rounded=0;whiteSpace=wrap;html=1;" vertex="1" parent="1">
          <mxGeometry x="330" y="600" width="40" height="30" as="geometry" />
        </mxCell>
        <mxCell id="S-F87JNWItroFMmMYHSW-62" value="a:6" style="rounded=0;whiteSpace=wrap;html=1;" vertex="1" parent="1">
          <mxGeometry x="384" y="600" width="40" height="30" as="geometry" />
        </mxCell>
        <mxCell id="S-F87JNWItroFMmMYHSW-63" value="a:9" style="rounded=0;whiteSpace=wrap;html=1;" vertex="1" parent="1">
          <mxGeometry x="434" y="600" width="40" height="30" as="geometry" />
        </mxCell>
        <mxCell id="S-F87JNWItroFMmMYHSW-64" value="a:7" style="rounded=0;whiteSpace=wrap;html=1;" vertex="1" parent="1">
          <mxGeometry x="490" y="600" width="40" height="30" as="geometry" />
        </mxCell>
        <mxCell id="S-F87JNWItroFMmMYHSW-65" value="a:5" style="rounded=0;whiteSpace=wrap;html=1;" vertex="1" parent="1">
          <mxGeometry x="585" y="600" width="40" height="30" as="geometry" />
        </mxCell>
        <mxCell id="S-F87JNWItroFMmMYHSW-66" value="a:9" style="rounded=0;whiteSpace=wrap;html=1;" vertex="1" parent="1">
          <mxGeometry x="640" y="600" width="40" height="30" as="geometry" />
        </mxCell>
        <mxCell id="S-F87JNWItroFMmMYHSW-67" value="a:8" style="rounded=0;whiteSpace=wrap;html=1;" vertex="1" parent="1">
          <mxGeometry x="690" y="600" width="40" height="30" as="geometry" />
        </mxCell>
        <mxCell id="S-F87JNWItroFMmMYHSW-69" value="a:6" style="rounded=0;whiteSpace=wrap;html=1;" vertex="1" parent="1">
          <mxGeometry x="760" y="600" width="40" height="30" as="geometry" />
        </mxCell>
        <mxCell id="S-F87JNWItroFMmMYHSW-71" style="edgeStyle=none;rounded=0;orthogonalLoop=1;jettySize=auto;html=1;exitX=0.5;exitY=1;exitDx=0;exitDy=0;entryX=0.5;entryY=0;entryDx=0;entryDy=0;" edge="1" parent="1" source="S-F87JNWItroFMmMYHSW-73" target="S-F87JNWItroFMmMYHSW-74">
          <mxGeometry relative="1" as="geometry" />
        </mxCell>
        <mxCell id="S-F87JNWItroFMmMYHSW-72" style="edgeStyle=none;rounded=0;orthogonalLoop=1;jettySize=auto;html=1;exitX=0.5;exitY=1;exitDx=0;exitDy=0;entryX=0.5;entryY=0;entryDx=0;entryDy=0;" edge="1" parent="1" source="S-F87JNWItroFMmMYHSW-73" target="S-F87JNWItroFMmMYHSW-75">
          <mxGeometry relative="1" as="geometry" />
        </mxCell>
        <mxCell id="S-F87JNWItroFMmMYHSW-73" value="b:6" style="rounded=0;whiteSpace=wrap;html=1;" vertex="1" parent="1">
          <mxGeometry x="424" y="230" width="40" height="30" as="geometry" />
        </mxCell>
        <mxCell id="S-F87JNWItroFMmMYHSW-78" style="edgeStyle=none;rounded=0;orthogonalLoop=1;jettySize=auto;html=1;exitX=0.5;exitY=1;exitDx=0;exitDy=0;entryX=0.5;entryY=0;entryDx=0;entryDy=0;" edge="1" parent="1" source="S-F87JNWItroFMmMYHSW-74" target="S-F87JNWItroFMmMYHSW-38">
          <mxGeometry relative="1" as="geometry" />
        </mxCell>
        <mxCell id="S-F87JNWItroFMmMYHSW-79" style="edgeStyle=none;rounded=0;orthogonalLoop=1;jettySize=auto;html=1;exitX=0.5;exitY=1;exitDx=0;exitDy=0;entryX=0.5;entryY=0;entryDx=0;entryDy=0;" edge="1" parent="1" source="S-F87JNWItroFMmMYHSW-74" target="S-F87JNWItroFMmMYHSW-41">
          <mxGeometry relative="1" as="geometry" />
        </mxCell>
        <mxCell id="S-F87JNWItroFMmMYHSW-74" value="a:6" style="rounded=0;whiteSpace=wrap;html=1;" vertex="1" parent="1">
          <mxGeometry x="334" y="320" width="40" height="30" as="geometry" />
        </mxCell>
        <mxCell id="S-F87JNWItroFMmMYHSW-80" style="edgeStyle=none;rounded=0;orthogonalLoop=1;jettySize=auto;html=1;exitX=0.5;exitY=1;exitDx=0;exitDy=0;entryX=0.5;entryY=0;entryDx=0;entryDy=0;" edge="1" parent="1" source="S-F87JNWItroFMmMYHSW-75" target="S-F87JNWItroFMmMYHSW-59">
          <mxGeometry relative="1" as="geometry" />
        </mxCell>
        <mxCell id="S-F87JNWItroFMmMYHSW-75" value="a:7" style="rounded=0;whiteSpace=wrap;html=1;" vertex="1" parent="1">
          <mxGeometry x="440" y="320" width="40" height="30" as="geometry" />
        </mxCell>
      </root>
    </mxGraphModel>
  </diagram>
</mxfile>
